<svg xmlns="http://www.w3.org/2000/svg" fill="none" viewBox="0 0 25 24" id="aim"><rect width="24" height="24" x=".463" fill="url(#paint0_linear_302_4775)" rx="8"></rect><path fill="#4285f4" fill-rule="evenodd" d="M15.4196 9.10434C16.8292 9.10434 17.9718 7.9617 17.9718 6.55217C17.9718 5.14264 16.8292 4 15.4196 4C14.0101 4 12.8675 5.14264 12.8675 6.55217C12.8675 7.9617 14.0101 9.10434 15.4196 9.10434ZM10.4147 12.2182C10.3616 12.7011 10.3098 13.1726 10.1314 13.5924C9.5324 15.0023 7.58283 16.165 6 16.5126L7.32733 20C9.10821 19.5686 11.7909 17.9893 12.5958 16.5126C13.9287 17.0934 16.0072 18.1789 16.9014 20L19.5664 17.8999C18.6096 16.2296 16.7226 13.4642 14.2364 13.2853L14.5132 12.4327C15.5758 12.8235 18.3713 12.818 19.3339 11.9081L18.4039 9.83332C16.1069 11.1159 13.1407 8.97425 12.8783 8.51615C11.9749 9.01885 11.1334 9.88407 10.795 10.5727C10.538 11.0957 10.4755 11.6644 10.4147 12.2182Z" clip-rule="evenodd" class="colorffffff svgShape"></path><defs><linearGradient id="paint0_linear_302_4775" x1=".463" x2="24.463" y1="12" y2="12" gradientUnits="userSpaceOnUse"><stop stop-color="#ea4335" class="stopColored6d6b svgShape"></stop><stop offset="1" stop-color="#fbbc05" class="stopColorf0b076 svgShape"></stop></linearGradient></defs></svg>