<svg xmlns="http://www.w3.org/2000/svg" fill="none" viewBox="0 0 25 24" id="px"><rect width="24" height="24" x=".463" fill="url(#paint0_linear_302_4950)" rx="8"></rect><path fill="#4285f4" fill-rule="evenodd" d="M4.74323 7C4.44783 7 4.20835 7.23948 4.20835 7.53488V9.82531C4.20835 10.0655 4.36852 10.2762 4.59997 10.3406C4.83142 10.405 5.07738 10.3071 5.20137 10.1013C5.4206 9.73752 5.8181 9.49611 6.27146 9.49611C6.96074 9.49611 7.51951 10.0549 7.51951 10.7442C7.51951 11.4334 6.96074 11.9922 6.27146 11.9922C5.66828 11.9922 5.16397 11.5638 5.04838 10.9943L4 11.2072C4.2148 12.2654 5.1495 13.062 6.27146 13.062C7.55155 13.062 8.58927 12.0242 8.58927 10.7442C8.58927 9.46409 7.55155 8.42635 6.27146 8.42635C5.91587 8.42635 5.57908 8.50648 5.27811 8.64948V8.06976H8.05439V7H4.74323ZM15.1861 14.4883C14.8907 14.4883 14.6512 14.7278 14.6512 15.0232V16.093V17.1627C14.6512 17.4581 14.4117 17.6976 14.1163 17.6976C13.8209 17.6976 13.5814 17.4581 13.5814 17.1627V15.0232C13.5814 14.137 14.2999 13.4186 15.1861 13.4186C16.0723 13.4186 16.7907 14.137 16.7907 15.0232C16.7907 15.9094 16.0723 16.6278 15.1861 16.6278C14.8907 16.6278 14.6512 16.3884 14.6512 16.093C14.6512 15.7976 14.8907 15.5581 15.1861 15.5581C15.4815 15.5581 15.721 15.3186 15.721 15.0232C15.721 14.7278 15.4815 14.4883 15.1861 14.4883ZM17.7038 13.5752C17.4949 13.3664 17.1563 13.3664 16.9474 13.5752C16.7385 13.7841 16.7385 14.1227 16.9474 14.3316L17.6389 15.0232L16.9474 15.7148C16.7385 15.9237 16.7385 16.2623 16.9474 16.4712C17.1563 16.68 17.4949 16.68 17.7038 16.4712L18.3954 15.7797L19.0869 16.4712C19.2958 16.68 19.6344 16.68 19.8433 16.4712C20.0522 16.2623 20.0522 15.9237 19.8433 15.7148L19.1518 15.0232L19.8433 14.3316C20.0522 14.1227 20.0522 13.7841 19.8433 13.5752C19.6344 13.3664 19.2958 13.3664 19.0869 13.5752L18.3954 14.2667L17.7038 13.5752ZM11.4419 8.42635C10.4572 8.42635 9.65899 9.2246 9.65899 10.2093C9.65899 11.194 10.4572 11.9922 11.4419 11.9922C12.4266 11.9922 13.2249 11.194 13.2249 10.2093C13.2249 9.2246 12.4266 8.42635 11.4419 8.42635ZM8.58923 10.2093C8.58923 8.63378 9.86642 7.35659 11.4419 7.35659C13.0174 7.35659 14.2946 8.63378 14.2946 10.2093C14.2946 11.7848 13.0174 13.062 11.4419 13.062C9.86642 13.062 8.58923 11.7848 8.58923 10.2093ZM15.3644 10.2093C15.3644 9.2246 16.1626 8.42635 17.1473 8.42635C18.132 8.42635 18.9302 9.2246 18.9302 10.2093C18.9302 11.194 18.132 11.9922 17.1473 11.9922C16.1626 11.9922 15.3644 11.194 15.3644 10.2093ZM17.1473 7.35659C15.5718 7.35659 14.2946 8.63378 14.2946 10.2093C14.2946 11.7848 15.5718 13.062 17.1473 13.062C18.7228 13.062 20 11.7848 20 10.2093C20 8.63378 18.7228 7.35659 17.1473 7.35659Z" clip-rule="evenodd" class="colorffffff svgShape"></path><defs><linearGradient id="paint0_linear_302_4950" x1=".463" x2="24.463" y1="12" y2="12" gradientUnits="userSpaceOnUse"><stop stop-color="#ea4335" class="stopColored6d6b svgShape"></stop><stop offset="1" stop-color="#fbbc05" class="stopColorf0b076 svgShape"></stop></linearGradient></defs></svg>