<svg xmlns="http://www.w3.org/2000/svg" fill="none" viewBox="0 0 25 24" id="analogue"><rect width="24" height="24" x=".463" fill="url(#paint0_linear_302_5162)" rx="8"></rect><path fill="#4285f4" fill-rule="evenodd" d="M14.8172 6.60826C13.8977 5.0522 11.8909 4.53617 10.3349 5.45565C8.7788 6.37514 8.26276 8.38197 9.18225 9.93802L13.9094 17.9378C14.8288 19.4938 16.8357 20.0099 18.3918 19.0904C19.9478 18.1709 20.4639 16.1641 19.5443 14.608L14.8172 6.60826ZM7.27263 19.5454C9.08005 19.5454 10.5453 18.0802 10.5453 16.2727C10.5453 14.4653 9.08005 13.0001 7.27263 13.0001C5.46521 13.0001 4 14.4653 4 16.2727C4 18.0802 5.46521 19.5454 7.27263 19.5454Z" clip-rule="evenodd" class="colorffffff svgShape"></path><defs><linearGradient id="paint0_linear_302_5162" x1=".463" x2="24.463" y1="12" y2="12" gradientUnits="userSpaceOnUse"><stop stop-color="#ea4335" class="stopColored6d6b svgShape"></stop><stop offset="1" stop-color="#fbbc05" class="stopColorf0b076 svgShape"></stop></linearGradient></defs></svg>