<svg xmlns="http://www.w3.org/2000/svg" fill="none" viewBox="0 0 25 24" id="anchor"><rect width="24" height="24" x=".463" fill="url(#paint0_linear_302_4832)" rx="8"></rect><path fill="#4285f4" d="M4.75257 17.6684C4.68088 18.0994 4 18.7165 4 18.7165V19.277C6.5345 19.1305 5.11243 15.269 5.5808 15.1754C6.0738 15.0768 6.92512 19.6954 8.35412 19.277C9.41803 18.9656 8.28239 12.4738 8.63735 12.3359C8.9923 12.1979 11.2601 19.5137 12.6207 19.277C13.9814 19.0405 12.3447 10.1666 12.7982 9.96941C13.2517 9.77221 15.6331 19.277 17.2459 19.277C18.3706 19.277 18.1884 13.3979 18.3 12.0597C18.3788 11.1131 19.4434 10.9693 20 11.065L19.4634 8.92427C19.4634 8.92427 18.5779 8.56935 17.7023 8.92427C16.0428 9.59689 17.0596 14.3853 16.3496 14.5036C15.6397 14.6219 13.3511 4 11.3127 4C10.1187 4 12.3122 15.5192 11.8192 15.6769C11.3263 15.8346 9.05146 8.01719 7.53305 8.56935C6.01463 9.1215 8.06145 16.2268 7.64735 16.345C7.23323 16.4634 5.63996 11.9612 4.75257 12.3359C3.86519 12.7105 4.84479 17.1141 4.75257 17.6684Z" class="colorffffff svgShape"></path><defs><linearGradient id="paint0_linear_302_4832" x1=".463" x2="24.463" y1="12" y2="12" gradientUnits="userSpaceOnUse"><stop stop-color="#ea4335" class="stopColored6d6b svgShape"></stop><stop offset="1" stop-color="#fbbc05" class="stopColorf0b076 svgShape"></stop></linearGradient></defs></svg>