<svg xmlns="http://www.w3.org/2000/svg" fill="none" viewBox="0 0 25 24" id="amazon"><rect width="24" height="24" x=".463" fill="url(#paint0_linear_302_4713)" rx="8"></rect><path fill="#4285f4" fill-rule="evenodd" d="M15.1342 14.7615L16.3014 13.6822C16.4551 13.5403 16.4576 13.2998 16.3215 13.1408C15.8401 12.5784 15.6952 12.1099 15.6952 11.7708V7.26315C15.7 6.50876 14.979 5 12.0572 5C9.4549 5 8.50756 6.54513 8.29437 7.57117C8.2541 7.76498 8.40347 7.93595 8.60063 7.95376L10.1384 8.09265C10.3255 8.10955 10.4936 7.98119 10.567 7.80826C10.758 7.35889 11.2046 6.7904 12.0572 6.7904C12.9166 6.7904 13.2174 7.44918 13.2603 7.77858V8.7957C9.04941 8.7957 7.96085 10.6289 7.96085 12.3763C7.96085 14.1237 9.2356 14.9975 10.7968 14.9975C11.8327 14.9975 12.7891 14.4259 13.3195 13.9939C13.4758 13.8667 13.7063 13.864 13.8512 14.0041L14.6288 14.7559C14.7691 14.8914 14.9909 14.8939 15.1342 14.7615ZM12.5377 12.8656C13.4815 12.1472 13.2644 10.1446 13.2644 10.1446C13.2644 10.1446 11.4899 10.0263 10.797 11.091C10.4187 11.6722 10.5414 12.4605 10.9998 12.8656C11.3811 13.2026 12.0235 13.2571 12.5377 12.8656ZM19.1205 15.3464C19.0065 15.2173 18.482 15.2618 17.9781 15.3046C17.4781 15.3471 16.9983 15.3878 16.96 15.2556C16.883 14.9899 19.2883 14.3745 19.8825 14.8566C20.3996 15.2761 19.0646 17.7517 18.6972 17.5518C18.624 17.512 18.7331 17.2128 18.8678 16.8433C19.0693 16.291 19.328 15.5814 19.1205 15.3464ZM11.8941 17.0482C8.56381 17.0482 6.1773 15.8947 4.94494 15.2991C4.42891 15.0497 4.11524 14.8981 4.0194 14.9699C3.69466 15.2134 7.49401 18.2173 11.8941 18.2173C15.7421 18.2173 19.0707 16.1391 18.5835 15.863C18.4095 15.7643 18.0448 15.8875 17.4552 16.0865C16.3949 16.4446 14.6072 17.0482 11.8941 17.0482Z" clip-rule="evenodd" class="colorffffff svgShape"></path><defs><linearGradient id="paint0_linear_302_4713" x1=".463" x2="24.463" y1="12" y2="12" gradientUnits="userSpaceOnUse"><stop stop-color="#ea4335" class="stopColored6d6b svgShape"></stop><stop offset="1" stop-color="#fbbc05" class="stopColorf0b076 svgShape"></stop></linearGradient></defs></svg>